<mxfile host="app.diagrams.net" modified="2021-07-28T07:44:54.289Z" agent="5.0 (Windows NT 10.0; Win64; x64) AppleWebKit/537.36 (KHTML, like Gecko) Chrome/92.0.4515.107 Safari/537.36" etag="eVpp19guICwAMzjRD5Lv" version="14.9.2" type="github">
  <diagram id="3mDoodbUwuJOSCma7foD" name="Page-1">
    <mxGraphModel dx="1022" dy="1605" grid="1" gridSize="10" guides="1" tooltips="1" connect="1" arrows="1" fold="1" page="1" pageScale="1" pageWidth="827" pageHeight="1169" math="0" shadow="0">
      <root>
        <mxCell id="0" />
        <mxCell id="1" parent="0" />
        <mxCell id="g24CAGB-Cl9b9uOjVEaq-1" value="Game Field" style="swimlane;" vertex="1" parent="1">
          <mxGeometry x="40" y="-120" width="200" height="200" as="geometry" />
        </mxCell>
        <mxCell id="g24CAGB-Cl9b9uOjVEaq-2" value="Input Manager" style="swimlane;" vertex="1" parent="1">
          <mxGeometry x="520" y="120" width="200" height="200" as="geometry" />
        </mxCell>
        <mxCell id="g24CAGB-Cl9b9uOjVEaq-3" value="Bricks" style="swimlane;" vertex="1" parent="1">
          <mxGeometry x="40" y="120" width="200" height="200" as="geometry" />
        </mxCell>
        <mxCell id="g24CAGB-Cl9b9uOjVEaq-4" value="Game Controller" style="swimlane;" vertex="1" parent="1">
          <mxGeometry x="280" y="120" width="200" height="200" as="geometry" />
        </mxCell>
        <mxCell id="g24CAGB-Cl9b9uOjVEaq-5" value="Paddle" style="swimlane;" vertex="1" parent="1">
          <mxGeometry x="520" y="-120" width="200" height="200" as="geometry" />
        </mxCell>
        <mxCell id="g24CAGB-Cl9b9uOjVEaq-6" value="Ball" style="swimlane;" vertex="1" parent="1">
          <mxGeometry x="280" y="-120" width="200" height="200" as="geometry" />
        </mxCell>
      </root>
    </mxGraphModel>
  </diagram>
</mxfile>
